:FULLY-SPECIFIED
:FORCE-ALL-JOINTS-BE-3DOF
:DEGREES
645
root 5.60737 16.4557 -2.81385 15.7405 12.5315 -0.949825
lfemur -15.1956 21.6081 -27.2817
ltibia 32.0515 0 0
lfoot -38.8785 12.9773 0
ltoes 24.2923 0 0
rfemur -58.7705 -27.6255 31.2194
rtibia 66.4902 0 0
rfoot -3.12297 -3.42373 0
rtoes 1.03934 0 0
lowerback -0.918481 -3.63333 -5.30471
upperback -2.11422 -4.84725 0.363246
thorax -1.17662 -2.3502 3.31796
lowerneck -9.91785 -7.51805 -0.124414
upperneck 6.32685 -10.5903 6.50728
head 4.0677 -4.93909 1.4421
lclavicle -4.08457e-14 -1.53432e-14 0
lhumerus -42.873 -67.7394 124.892
lradius 72.0269 0 0
lwrist 23.6123 0 0
lhand -5.82192 2.63188 0
lfingers 7.12502 0 0
lthumb 20.003 31.6157 0
rclavicle -4.08457e-14 -1.53432e-14 0
rhumerus -31.0741 -1.3965 -74.1451
rradius 69.3599 0 0
rwrist -23.7187 0 0
rhand -29.8588 -43.0991 0
rfingers 7.12502 0 0
rthumb -3.18107 -793.056 0
646
root 5.59515 16.4291 -2.76028 16.1128 11.5861 -0.716317
lfemur -15.4772 22.138 -27.6739
ltibia 32.4282 0 0
lfoot -39.0544 13.066 0
ltoes 23.8026 0 0
rfemur -59.6935 -28.269 32.24
rtibia 66.7723 0 0
rfoot -3.88641 -3.43955 0
rtoes 1.40531 0 0
lowerback -0.849033 -3.67606 -5.47839
upperback -2.05236 -4.90884 0.202202
thorax -1.14648 -2.38145 3.25022
lowerneck -9.86823 -7.51677 -0.220134
upperneck 5.75873 -10.5646 6.72933
head 3.91615 -4.93565 1.54759
lclavicle -4.08505e-14 -1.39613e-14 0
lhumerus -43.6605 -68.3468 125.792
lradius 72.0552 0 0
lwrist 23.8218 0 0
lhand -5.5743 2.88556 0
lfingers 7.12502 0 0
lthumb 20.2412 31.8465 0
rclavicle -4.08505e-14 -1.39613e-14 0
rhumerus -32.8689 -2.08575 -74.9101
rradius 67.6594 0 0
rwrist -22.3175 0 0
rhand -29.7896 -44.0177 0
rfingers 7.12502 0 0
rthumb -3.1143 -793.975 0
647
root 5.58293 16.4026 -2.70672 16.4622 10.6392 -0.494833
lfemur -15.7716 22.6492 -28.0255
ltibia 32.8987 0 0
lfoot -39.1136 13.1087 0
ltoes 23.2864 0 0
rfemur -60.5254 -28.8436 33.1896
rtibia 67.0371 0 0
rfoot -4.64963 -3.46162 0
rtoes 1.74976 0 0
lowerback -0.783709 -3.72303 -5.62891
upperback -1.99417 -4.97582 0.0536122
thorax -1.11873 -2.41554 3.18237
lowerneck -9.82253 -7.50796 -0.308376
upperneck 5.21714 -10.5295 6.92689
head 3.77052 -4.92753 1.6436
lclavicle -4.0702e-14 -1.26466e-14 0
lhumerus -44.3003 -68.9189 126.528
lradius 72.1152 0 0
lwrist 24.0278 0 0
lhand -5.35848 3.1154 0
lfingers 7.12502 0 0
lthumb 20.4487 32.0563 0
rclavicle -4.0702e-14 -1.26466e-14 0
rhumerus -34.5893 -2.75724 -75.5665
rradius 66.0681 0 0
rwrist -21.0031 0 0
rhand -29.719 -44.8867 0
rfingers 7.12502 0 0
rthumb -3.04604 -794.845 0
648
root 5.57071 16.376 -2.65315 16.7862 9.68895 -0.287185
lfemur -16.0779 23.1344 -28.3293
ltibia 33.4708 0 0
lfoot -39.0407 13.0958 0
ltoes 22.745 0 0
rfemur -61.2483 -29.3372 34.0519
rtibia 67.2813 0 0
rfoot -5.40928 -3.49781 0
rtoes 2.06809 0 0
lowerback -0.724572 -3.7746 -5.75194
upperback -1.9411 -5.04853 -0.0797994
thorax -1.09387 -2.45262 3.1147
lowerneck -9.78198 -7.4902 -0.387312
upperneck 4.70807 -10.4834 7.09538
head 3.63228 -4.91385 1.72826
lclavicle -4.0409e-14 -1.1424e-14 0
lhumerus -44.7711 -69.4519 127.081
lradius 72.2144 0 0
lwrist 24.229 0 0
lhand -5.17957 3.31679 0
lfingers 7.12502 0 0
lthumb 20.6208 32.2409 0
rclavicle -4.0409e-14 -1.1424e-14 0
rhumerus -36.2233 -3.40455 -76.0943
rradius 64.6027 0 0
rwrist -19.7904 0 0
rhand -29.6477 -45.697 0
rfingers 7.12502 0 0
rthumb -2.9772 -795.656 0
649
root 5.55849 16.3494 -2.59959 17.0825 8.73323 -0.0951835
lfemur -16.395 23.5865 -28.578
ltibia 34.1526 0 0
lfoot -38.8199 13.0181 0
ltoes 22.1802 0 0
rfemur -61.8443 -29.738 34.8104
rtibia 67.5014 0 0
rfoot -6.16202 -3.55601 0
rtoes 2.35573 0 0
lowerback -0.673684 -3.83109 -5.84313
upperback -1.89459 -5.1273 -0.195308
thorax -1.0724 -2.49289 3.04755
lowerneck -9.74785 -7.46204 -0.455113
upperneck 4.2375 -10.4244 7.23025
head 3.5029 -4.89373 1.79971
lclavicle -3.99803e-14 -1.03183e-14 0
lhumerus -45.0515 -69.9421 127.426
lradius 72.36 0 0
lwrist 24.4239 0 0
lhand -5.04267 3.48511 0
lfingers 7.12502 0 0
lthumb 20.7524 32.3962 0
rclavicle -3.99803e-14 -1.03183e-14 0
rhumerus -37.7591 -4.02127 -76.4737
rradius 63.2798 0 0
rwrist -18.694 0 0
rhand -29.5767 -46.4395 0
rfingers 7.12502 0 0
rthumb -2.90868 -796.4 0
650
root 5.54627 16.3228 -2.54602 17.3487 7.77009 0.07936
lfemur -16.722 23.9986 -28.7643
ltibia 34.9519 0 0
lfoot -38.4356 12.8659 0
ltoes 21.5933 0 0
rfemur -62.2954 -30.0339 35.4484
rtibia 67.694 0 0
rfoot -6.90451 -3.64412 0
rtoes 2.60806 0 0
lowerback -0.633107 -3.89282 -5.89813
upperback -1.8561 -5.21245 -0.290188
thorax -1.05482 -2.5365 2.98123
lowerneck -9.72139 -7.42207 -0.509948
upperneck 3.81143 -10.351 7.32692
head 3.38382 -4.86629 1.85609
lclavicle -3.94247e-14 -9.35437e-15 0
lhumerus -45.1201 -70.3858 127.544
lradius 72.5596 0 0
lwrist 24.6112 0 0
lhand -4.95288 3.61576 0
lfingers 7.12502 0 0
lthumb 20.8388 32.518 0
rclavicle -3.94247e-14 -9.35437e-15 0
rhumerus -39.1846 -4.60098 -76.6847
rradius 62.1162 0 0
rwrist -17.7287 0 0
rhand -29.5071 -47.1052 0
rfingers 7.12502 0 0
rthumb -2.84139 -797.066 0
651
root 5.53405 16.2962 -2.49246 17.5822 6.79756 0.234635
lfemur -17.0579 24.3633 -28.8811
ltibia 35.8768 0 0
lfoot -37.8722 12.6299 0
ltoes 20.9859 0 0
rfemur -62.5837 -30.2129 35.9495
rtibia 67.8558 0 0
rfoot -7.63339 -3.77002 0
rtoes 2.82051 0 0
lowerback -0.604904 -3.96014 -5.91259
upperback -1.82708 -5.30432 -0.361715
thorax -1.04162 -2.58362 2.91607
lowerneck -9.70385 -7.36884 -0.549988
upperneck 3.43584 -10.2613 7.38084
head 3.27653 -4.83064 1.89554
lclavicle -3.8751e-14 -8.55713e-15 0
lhumerus -44.9556 -70.7794 127.412
lradius 72.8207 0 0
lwrist 24.7895 0 0
lhand -4.91531 3.70411 0
lfingers 7.12502 0 0
lthumb 20.8749 32.6022 0
rclavicle -3.8751e-14 -8.55713e-15 0
rhumerus -40.4879 -5.13728 -76.7073
rradius 61.1287 0 0
rwrist -16.909 0 0
rhand -29.4396 -47.685 0
rfingers 7.12502 0 0
rthumb -2.77625 -797.647 0
652
root 5.52183 16.2696 -2.43889 17.7807 5.81363 0.36883
lfemur -17.4017 24.6737 -28.9211
ltibia 36.9351 0 0
lfoot -37.114 12.3006 0
ltoes 20.3595 0 0
rfemur -62.6914 -30.2631 36.2973
rtibia 67.9832 0 0
rfoot -8.34533 -3.94159 0
rtoes 2.98849 0 0
lowerback -0.591138 -4.03337 -5.88217
upperback -1.80897 -5.40325 -0.407164
thorax -1.03332 -2.63444 2.85238
lowerneck -9.69647 -7.30093 -0.573404
upperneck 3.11671 -10.1537 7.38745
head 3.18248 -4.7859 1.91621
lclavicle -3.79679e-14 -7.95139e-15 0
lhumerus -44.5367 -71.1192 127.009
lradius 73.1505 0 0
lwrist 24.9573 0 0
lhand -4.93506 3.74556 0
lfingers 7.12502 0 0
lthumb 20.8558 32.6446 0
rclavicle -3.79679e-14 -7.95139e-15 0
rhumerus -41.6572 -5.62375 -76.5216
rradius 60.334 0 0
rwrist -16.2497 0 0
rhand -29.3753 -48.1698 0
rfingers 7.12502 0 0
rthumb -2.71414 -798.132 0
653
root 5.51646 16.2518 -2.31548 17.9445 4.83747 0.480181
lfemur -17.7512 24.9596 -28.9286
ltibia 38.1404 0 0
lfoot -36.1179 11.8685 0
ltoes 19.6425 0 0
rfemur -62.6568 -30.1932 36.5207
rtibia 68.1427 0 0
rfoot -9.10312 -4.15268 0
rtoes 3.11541 0 0
lowerback -0.591746 -4.11848 -5.80185
upperback -1.7995 -5.51714 -0.423712
thorax -1.02748 -2.69303 2.79006
lowerneck -9.70205 -7.21575 -0.580939
upperneck 2.8434 -10.024 7.34125
head 3.09867 -4.73036 1.91677
lclavicle -3.68742e-14 -7.52454e-15 0
lhumerus -43.8576 -71.4462 126.356
lradius 73.5604 0 0
lwrist 25.1184 0 0
lhand -5.00815 3.7457 0
lfingers 7.12502 0 0
lthumb 20.7854 32.6509 0
rclavicle -3.68742e-14 -7.52454e-15 0
rhumerus -42.7196 -6.08401 -76.1482
rradius 59.7 0 0
rwrist -15.76 0 0
rhand -29.3014 -48.5723 0
rfingers 7.12502 0 0
rthumb -2.64276 -798.535 0
654
root 5.51109 16.234 -2.19207 18.0768 3.88678 0.569448
lfemur -18.1058 25.2535 -28.9478
ltibia 39.4939 0 0
lfoot -34.868 11.3374 0
ltoes 18.7759 0 0
rfemur -62.5321 -30.0244 36.6628
rtibia 68.3914 0 0
rfoot -9.96103 -4.38891 0
rtoes 3.2095 0 0
lowerback -0.604204 -4.21983 -5.67281
upperback -1.7951 -5.65191 -0.412369
thorax -1.02157 -2.76244 2.72866
lowerneck -9.72132 -7.11296 -0.575385
upperneck 2.6002 -9.87075 7.24333
head 3.02095 -4.66371 1.8984
lclavicle -3.52983e-14 -7.23666e-15 0
lhumerus -42.9395 -71.7975 125.496
lradius 74.0504 0 0
lwrist 25.2775 0 0
lhand -5.1253 3.71456 0
lfingers 7.12502 0 0
lthumb 20.6728 32.6306 0
rclavicle -3.52983e-14 -7.23666e-15 0
rhumerus -43.7111 -6.54465 -75.6274
rradius 59.1812 0 0
rwrist -15.4298 0 0
rhand -29.2065 -48.9134 0
rfingers 7.12502 0 0
rthumb -2.55115 -798.877 0
655
root 5.50572 16.2162 -2.06866 18.1794 2.95741 0.638611
lfemur -18.4671 25.5521 -28.9712
ltibia 40.9852 0 0
lfoot -33.3899 10.7176 0
ltoes 17.7799 0 0
rfemur -62.3202 -29.7639 36.728
rtibia 68.7123 0 0
rfoot -10.9029 -4.64582 0
rtoes 3.27342 0 0
lowerback -0.62688 -4.33537 -5.50004
upperback -1.7953 -5.80494 -0.376162
thorax -1.01592 -2.84131 2.66794
lowerneck -9.75244 -6.99447 -0.557981
upperneck 2.38553 -9.69671 7.09897
head 2.94903 -4.58717 1.86299
lclavicle -3.32934e-14 -7.07163e-15 0
lhumerus -41.801 -72.1639 124.442
lradius 74.6113 0 0
lwrist 25.4345 0 0
lhand -5.2836 3.65414 0
lfingers 7.12502 0 0
lthumb 20.5205 32.5853 0
rclavicle -3.32934e-14 -7.07163e-15 0
rhumerus -44.6332 -7.00372 -74.9691
rradius 58.7736 0 0
rwrist -15.2445 0 0
rhand -29.0938 -49.1966 0
rfingers 7.12502 0 0
rthumb -2.4423 -799.162 0
656
root 5.50035 16.1984 -1.94524 18.2542 2.0452 0.689647
lfemur -18.8365 25.8521 -28.9913
ltibia 42.604 0 0
lfoot -31.7089 10.0196 0
ltoes 16.6747 0 0
rfemur -62.024 -29.4185 36.7209
rtibia 69.0879 0 0
rfoot -11.9125 -4.91892 0
rtoes 3.30982 0 0
lowerback -0.658144 -4.46305 -5.28852
upperback -1.79962 -5.97359 -0.318119
thorax -1.01086 -2.92829 2.60767
lowerneck -9.79356 -6.86221 -0.529967
upperneck 2.19778 -9.50446 6.91349
head 2.88267 -4.50196 1.81242
lclavicle -3.0913e-14 -7.01338e-15 0
lhumerus -40.4611 -72.536 123.202
lradius 75.2337 0 0
lwrist 25.5895 0 0
lhand -5.48018 3.56645 0
lfingers 7.12502 0 0
lthumb 20.3315 32.5167 0
rclavicle -3.0913e-14 -7.01338e-15 0
rhumerus -45.4872 -7.45926 -74.1831
rradius 58.4736 0 0
rwrist -15.1895 0 0
rhand -28.9663 -49.4254 0
rfingers 7.12502 0 0
rthumb -2.31917 -799.392 0
657
root 5.49498 16.1806 -1.82183 18.303 1.14599 0.724535
lfemur -19.2153 26.1502 -29.0006
ltibia 44.3397 0 0
lfoot -29.8507 9.25372 0
ltoes 15.4807 0 0
rfemur -61.6461 -28.9953 36.646
rtibia 69.5014 0 0
rfoot -12.9738 -5.20378 0
rtoes 3.32134 0 0
lowerback -0.696363 -4.60081 -5.04324
upperback -1.80759 -6.15521 -0.241266
thorax -1.0067 -3.02202 2.54765
lowerneck -9.84286 -6.7181 -0.492585
upperneck 2.03536 -9.29665 6.69217
head 2.82157 -4.4093 1.74857
lclavicle -2.82105e-14 -7.04579e-15 0
lhumerus -38.9384 -72.9045 121.789
lradius 75.9083 0 0
lwrist 25.7425 0 0
lhand -5.71212 3.45351 0
lfingers 7.12502 0 0
lthumb 20.1084 32.4264 0
rclavicle -2.82105e-14 -7.04579e-15 0
rhumerus -46.2746 -7.90932 -73.2791
rradius 58.2773 0 0
rwrist -15.2504 0 0
rhand -28.8271 -49.6033 0
rfingers 7.12502 0 0
rthumb -2.18473 -799.572 0
